<?xml version="1.0" standalone="no"?><!DOCTYPE svg PUBLIC "-//W3C//DTD SVG 1.1//EN" "http://www.w3.org/Graphics/SVG/1.1/DTD/svg11.dtd"><svg t="1711098315168" class="icon" viewBox="0 0 1024 1024" version="1.1" xmlns="http://www.w3.org/2000/svg" p-id="1042" xmlns:xlink="http://www.w3.org/1999/xlink" width="128" height="128"><path d="M832 64H192a32 32 0 0 0-32 32V320h704V96A32 32 0 0 0 832 64zM288 232a40 40 0 1 1 0-80 40 40 0 0 1 0 80zM160 928a32 32 0 0 0 32 32h640a32 32 0 0 0 32-32V704h-704v224z m128-136a40 40 0 1 1 0 80 40 40 0 0 1 0-80zM160 640h704V384h-704v256z m128-168a40 40 0 1 1 0 80 40 40 0 0 1 0-80z" fill="#1677FF" p-id="1043"></path></svg>